<?xml version="1.0" encoding="UTF-8" standalone="no"?>
<!DOCTYPE svg PUBLIC "-//W3C//DTD SVG 1.1//EN" "http://www.w3.org/Graphics/SVG/1.1/DTD/svg11.dtd">
<svg width="100%" height="100%" viewBox="0 0 835 834" version="1.1" xmlns="http://www.w3.org/2000/svg" xmlns:xlink="http://www.w3.org/1999/xlink" xml:space="preserve" xmlns:serif="http://www.serif.com/" style="fill-rule:evenodd;clip-rule:evenodd;stroke-linejoin:round;stroke-miterlimit:2;">
    <g transform="matrix(1,0,0,1,-82,-83)">
        <path id="Rectangle-1" serif:id="Rectangle 1" d="M917,195L917,805C917,866.814 866.814,917 805,917L194,917C132.186,917 82,866.814 82,805L82,195C82,133.186 132.186,83 194,83L805,83C866.814,83 917,133.186 917,195Z" style="fill:rgb(53,67,237);"/>
        <g id="bell-1-copy" serif:id="bell 1 copy" transform="matrix(1,0,0,1,-0.49994,15.991807)">
            <path d="M499.592,423.904C499.725,423.9 499.858,423.898 499.991,423.898L500.146,423.899L499.592,423.904ZM499.592,423.904C499.725,423.9 499.858,423.898 499.991,423.898L500.146,423.899L499.592,423.904ZM498.91,392.447C499.101,392.442 499.294,392.439 499.487,392.439L499.711,392.44L498.91,392.447ZM483.368,633.278C482.527,632.619 481.723,631.907 480.96,631.144C476.861,627.044 474.233,621.75 473.395,616.075C473.202,614.771 473.104,613.447 473.104,612.112L526.878,612.112C526.878,613.447 526.779,614.771 526.587,616.075C525.748,621.75 523.121,627.044 519.022,631.144C518.259,631.907 517.454,632.619 516.614,633.278C511.901,636.973 506.052,639 499.991,639C493.93,639 488.081,636.973 483.368,633.278ZM206.966,337.336C206.966,296.887 239.818,264 280.224,264L719.776,264C760.182,264 793.034,296.887 793.034,337.336L793.034,630.68C793.034,671.13 760.182,704.016 719.776,704.016L280.224,704.016C239.818,704.016 206.966,671.13 206.966,630.68L206.966,337.336ZM593.435,481.597L738.09,362.66L738.09,337.336C738.09,327.252 729.849,319.002 719.776,319.002L280.224,319.002C270.151,319.002 261.91,327.252 261.91,337.336L261.91,362.66L406.386,481.382C405.793,483.391 405.289,485.429 404.877,487.494C404.735,486.782 404.604,486.067 404.484,485.348C402.938,491.433 402.122,497.761 402.122,504.257L402.122,514.364C402.122,524.761 400.339,535.012 396.918,544.796L261.91,433.819L261.91,630.68C261.91,640.764 270.151,649.014 280.224,649.014L719.776,649.014C729.849,649.014 738.09,640.764 738.09,630.68L738.09,433.819L602.28,545.455C598.712,535.483 596.851,525.009 596.851,514.364L596.851,504.257L596.85,503.94C596.829,498.783 596.294,493.733 595.288,488.828C594.786,486.38 594.167,483.968 593.435,481.597ZM580.422,563.421C582.567,566.695 584.958,569.827 587.583,572.789L590.692,576.276C594.221,580.225 595.103,585.897 592.918,590.728C590.734,595.559 585.945,598.668 580.651,598.668L419.33,598.668C414.037,598.668 409.206,595.559 407.063,590.728C404.921,585.897 405.761,580.225 409.29,576.276L412.398,572.789C415.025,569.825 417.418,566.689 419.564,563.41C428.127,550.328 432.774,534.97 432.774,519.181L432.774,511.283C432.774,508.629 432.928,506.011 433.227,503.438C433.5,501.088 433.895,498.775 434.404,496.506C434.487,497.067 434.577,497.626 434.675,498.183C439.981,468.091 467.451,445.134 500.499,445.134C517.639,445.134 533.279,451.31 545.105,461.454C555.85,471.192 563.435,484.359 566.129,499.225C566.386,500.644 566.598,502.078 566.765,503.526C567.048,505.991 567.198,508.497 567.207,511.036L567.208,511.283L567.208,519.181C567.208,535.006 571.856,550.347 580.422,563.421ZM488.731,419.937C475.083,419.833 452.772,428.919 450.969,424.339C449.238,419.942 451.47,417.891 458.761,416.56C469.02,414.686 500.009,406.909 546.8,418.103C553.661,419.744 549.907,426.031 546.74,425.939C538.69,425.705 526.48,419.138 488.731,419.937ZM568.166,369.671C561.875,375.505 557.199,404.5 553.103,411.543C551.508,414.286 549.298,413.447 543.591,411.929C527.038,407.526 506.136,406.974 505.742,406.94C471.86,405.44 453.929,414.721 449.824,414.132C447.712,413.83 447.705,413.236 440.049,389.328C435.776,375.986 436.064,371.468 433.697,369.573C433.263,369.649 432.817,369.689 432.362,369.689C428.153,369.689 424.737,366.273 424.737,362.064C424.737,357.856 428.153,354.439 432.362,354.439C436.57,354.439 439.987,357.856 439.987,362.064C439.987,363.673 439.487,365.167 438.635,366.398C438.678,368.01 438.96,369.384 439.945,370.153C448.123,376.536 454.021,384.574 454.811,385.301C457.805,388.052 461.627,367.636 462.079,362.45C462.099,362.226 462.094,362.028 462.069,361.852C458.724,361.045 456.237,358.03 456.237,354.439C456.237,353.924 456.288,353.42 456.386,352.934C456.683,351.452 457.41,350.125 458.432,349.088C459.815,347.685 461.737,346.814 463.862,346.814C468.07,346.814 471.487,350.231 471.487,354.439C471.487,356.779 470.43,358.874 468.769,360.274C470.491,365.533 481.501,377.545 481.743,377.531C484.675,377.367 493.957,354.149 495.769,348.442C495.826,348.261 495.867,348.086 495.893,347.916C492.547,346.298 490.237,342.87 490.237,338.907C490.237,333.553 494.455,329.175 499.746,328.919C499.909,328.911 500.072,328.907 500.237,328.907C505.756,328.907 510.237,333.388 510.237,338.907C510.237,342.841 507.96,346.248 504.654,347.88C505.834,351.787 517.427,376.885 517.864,377.252C519.376,378.521 529.118,366.286 531.47,362.275C531.851,361.624 532.092,361.109 532.224,360.674C530.266,359.293 528.987,357.015 528.987,354.439C528.987,350.231 532.403,346.814 536.612,346.814C537.231,346.814 537.832,346.888 538.409,347.028C539.747,347.351 540.947,348.028 541.906,348.954C543.343,350.341 544.237,352.287 544.237,354.439C544.237,357.848 541.995,360.737 538.907,361.712C538.787,361.949 538.704,362.186 538.669,362.427C538.56,363.18 543.074,383.017 543.623,384.503C544.488,386.842 546.935,383.953 549.138,381.848C558.749,372.665 561.775,369.576 562.096,367.299C560.805,365.933 560.013,364.09 560.013,362.064C560.013,357.856 563.43,354.439 567.638,354.439C571.847,354.439 575.263,357.856 575.263,362.064C575.263,366.095 572.129,369.4 568.166,369.671ZM450.409,396.565C443.909,386.523 448.277,401.718 448.861,402.323C451.533,405.095 450.472,397.038 450.409,396.565ZM525.791,393.985C526.617,396.381 528.928,397.658 529.53,397.181C534.702,393.083 533.437,389.863 533.181,389.21C531.8,387.07 530.502,383.2 527.152,387.769C525.353,390.223 525.231,392.361 525.791,393.985ZM549.902,399.164C549.962,401.23 550.505,403.88 553.135,398.594C553.969,395.649 554.006,395.676 554.036,395.414C554.372,392.518 551.32,393.881 549.96,397.504C549.933,397.577 549.877,398.322 549.902,399.164ZM500.337,372.572L490.624,387.472L500.337,402.372L510.049,387.472L500.337,372.572ZM473.983,388.119C472.531,387.018 470.531,384.545 468.812,386.494C464.465,391.428 471.032,399.808 473.478,396.254C476.915,391.257 474.428,388.596 473.983,388.119Z" style="fill:white;"/>
        </g>
    </g>
</svg>
