<svg version="1.2" xmlns="http://www.w3.org/2000/svg" viewBox="0 0 2048 2048" width="2048" height="2048">
	<style>
		.s0 { fill: #3453ee } 
		.s1 { fill: #ffffff } 
	</style>
	<g id="Folder 1">
		<path id="Color Fill 1" fill-rule="evenodd" class="s0" d="m1028.89 0.02c553.5 0.14 753.23 0.55 761.21 1.56 5.95 0.75 15.41 2.22 21.03 3.27 5.61 1.05 16.7 3.75 24.63 6.02 7.93 2.26 20.64 6.59 28.24 9.6 7.6 3.02 18.41 7.84 24.03 10.72 5.62 2.87 16.97 9.64 25.23 15.02 8.26 5.39 19.89 13.76 25.84 18.59 5.94 4.84 17.03 15.22 24.63 23.07 7.6 7.86 16.53 17.5 19.84 21.42 3.31 3.91 9.85 13.07 14.53 20.34 4.68 7.27 10.73 16.73 13.44 21.03 2.7 4.29 7.15 12.67 9.87 18.62 2.73 5.95 6.83 16.49 9.13 23.43 2.3 6.94 5.8 19.11 7.8 27.04 1.99 7.93 4.63 19.82 5.86 26.43 1.23 6.61 2.55 14.45 2.92 17.43 0.37 2.97 0.75 345.51 0.84 761.2 0.12 561.21-0.19 758.74-1.22 767.22-0.75 6.28-3.24 19.79-5.52 30.04-2.29 10.24-6.08 24.57-8.43 31.84-2.35 7.27-8.29 21.33-13.2 31.24-4.9 9.91-13.42 24.78-18.92 33.05-5.5 8.26-14.21 20.15-19.37 26.43-5.15 6.28-13.78 15.66-19.17 20.85-5.4 5.19-13.6 12.52-18.23 16.27-4.62 3.76-14.09 10.85-21.03 15.76-6.93 4.91-17.48 11.66-23.43 15-5.94 3.34-15.95 8.44-22.23 11.32-6.27 2.89-17.9 7.38-25.83 9.98-7.93 2.59-21.18 6.28-29.44 8.18-8.26 1.9-20.56 4.02-27.33 4.72-8.46 0.86-250.19 1.27-772.03 1.29-662.1 0.02-761.4-0.2-772.92-1.74-7.27-0.97-20.52-3.66-29.44-5.96-8.92-2.31-22.98-6.6-31.24-9.53-8.26-2.94-18.26-6.92-22.23-8.85-3.96-1.94-10.99-5.61-15.62-8.16-4.63-2.56-14.36-8.55-21.63-13.32-7.27-4.77-19.16-13.77-26.43-20.01-7.27-6.24-16.82-15.09-21.21-19.67-4.4-4.57-11.53-12.65-15.84-17.93-4.32-5.29-11.61-15.02-16.2-21.63-4.6-6.61-12.12-19.32-16.72-28.24-4.61-8.92-10.31-20.82-12.68-26.43-2.37-5.62-6.22-16.71-8.55-24.64-2.32-7.93-5.32-19.55-6.65-25.83-1.34-6.28-3.25-17.77-4.26-25.53-1.62-12.52-1.83-98.89-1.78-762.41 0.03-511.5 0.44-752.67 1.3-762.11 0.69-7.6 2.29-19.23 3.55-25.84 1.26-6.6 4.27-18.77 6.67-27.03 2.41-8.26 6.24-19.89 8.52-25.84 2.28-5.94 6.58-15.68 9.57-21.62 2.98-5.95 8.14-15.41 11.46-21.03 3.31-5.62 9.05-14.54 12.74-19.83 3.69-5.29 8.9-12.25 11.57-15.49 2.68-3.23 9.73-11.28 15.68-17.89 5.94-6.62 17.3-17.21 25.23-23.54 7.93-6.34 20.1-15.35 27.04-20.02 6.93-4.68 19.64-12.08 28.23-16.43 8.59-4.36 20.49-9.8 26.44-12.1 5.95-2.29 14.33-5.29 18.62-6.67 4.3-1.38 12.14-3.58 17.43-4.89 5.28-1.31 14.75-3.28 21.02-4.38 6.28-1.1 16.56-2.35 22.83-2.79 6.28-0.43 349.1-0.7 761.81-0.6zm-502.86 456c-9.82 0.52-17.11 1.62-22.83 3.44-4.63 1.47-13.28 4.97-19.23 7.77-5.95 2.79-13.79 7.34-17.42 10.1-3.64 2.77-10.36 9.2-14.94 14.31-4.58 5.1-10.03 11.98-12.11 15.29-2.09 3.3-5.86 11.14-8.4 17.42-2.54 6.28-5.45 14.39-6.47 18.02-1.67 5.91-1.91 56.48-2.26 475.23-0.28 322.2-0.01 472.1 0.86 479.74 0.69 6.11 2.67 15.03 4.38 19.82 1.72 4.8 5.46 13.04 8.3 18.33 2.84 5.29 9.18 14.21 14.07 19.82 4.9 5.62 11.85 12.82 15.44 16.01 3.7 3.28 11.74 8.31 18.55 11.61 6.61 3.2 15.53 6.81 19.83 8.03 7.51 2.12 26.99 2.22 518.48 2.51 458.74 0.27 511.41 0.11 517.89-1.57 3.96-1.03 10.72-3.27 15.02-4.97 4.29-1.71 11.32-5.15 15.62-7.65 4.29-2.5 10.78-7.1 14.42-10.22 3.63-3.13 10.27-9.79 14.75-14.82 4.48-5.03 10.25-13.19 12.82-18.15 2.57-4.96 6.48-14.69 8.68-21.63l4-12.62c0-928.58-0.1-950.84-2.16-958.86-1.18-4.63-4.1-13.28-6.47-19.23-2.38-5.95-6.04-13.52-8.14-16.82-2.1-3.31-7.84-10.55-12.75-16.1-4.91-5.55-12.17-12.34-16.14-15.08-3.96-2.74-9.91-6.42-13.22-8.18-3.3-1.75-10.06-4.61-15.02-6.36-4.95-1.75-14.15-3.87-20.42-4.72-9.15-1.24-108.77-1.51-501.07-1.39-269.3 0.09-496.13 0.5-504.06 0.92zm496.27 73.17c258.73-0.02 471.22 0.24 472.21 0.57 0.99 0.33 1.78 1.54 1.75 2.7-0.03 1.16-56.62 58.61-125.76 127.67-69.14 69.06-131.43 131.48-138.43 138.71-7 7.23-18.67 18.83-25.94 25.78-7.27 6.95-15.53 15.36-18.35 18.7-2.82 3.33-5.1 6.87-5.05 7.86 0.04 0.99 5.86 7.8 12.93 15.12 7.08 7.32 16.65 18.52 21.28 24.88 4.63 6.36 9.09 11.86 9.91 12.22 0.89 0.38 66.72-64.62 159.82-157.79 87.07-87.14 159.52-159.05 161.01-159.81 1.49-0.75 3.24-1.1 3.9-0.77 0.8 0.4 1.1 148.99 0.9 443.07-0.28 420.35-0.4 442.49-2.4 442.79-1.4 0.21-35.48-33.07-101.83-99.42-54.86-54.85-100.28-99.73-100.94-99.73-0.72 0-1.2 4.7-1.2 11.72 0.01 8.17-0.75 14.44-2.49 20.72-1.37 4.96-3.65 10.91-5.06 13.22-1.41 2.31-6.51 8.4-11.33 13.52-4.81 5.12-8.77 9.99-8.78 10.81-0.02 0.83 4.17 5.66 9.31 10.73 5.14 5.07 23.79 23.73 41.45 41.45 17.66 17.73 52.68 52.78 77.83 77.89 26.39 26.35 45.58 46.43 45.38 47.47-0.31 1.6-53.29 1.8-468.25 1.8-373.31 0-467.98-0.3-468.3-1.5-0.22-0.83 36.69-38.68 82.04-84.11 45.34-45.44 84.82-85.18 92.99-94.03l-10.22-11.71c-5.62-6.45-11.29-13.88-12.6-16.53-1.31-2.64-3.19-8.59-4.18-13.21-0.99-4.63-1.81-12.6-1.82-17.73-0.02-7.46-0.38-9.31-1.82-9.31-0.99 0-23.03 21.12-48.97 46.93-25.94 25.81-47.56 47.3-48.06 47.76-0.49 0.46-23.2 23.28-50.47 50.7-27.26 27.43-50.51 50.55-51.67 51.37-1.68 1.2-2.47 1.2-3.96 0-1.66-1.35-1.85-46.05-1.8-440.38 0.04-290.08 0.46-439.7 1.26-441.29 1.1-2.2 1.47-2.26 4.5-0.69 1.82 0.94 74.41 72.6 161.32 159.24 86.9 86.65 158.68 157.52 159.51 157.5 0.82-0.01 2.69-2.05 4.14-4.53 1.45-2.48 5.29-8.02 8.52-12.32 3.23-4.29 11.53-13.76 18.43-21.03 6.9-7.27 12.53-14.16 12.51-15.32-0.03-1.15-21.27-23.41-47.21-49.45-25.94-26.04-76.2-76.46-111.7-112.05-35.49-35.58-84.6-84.7-109.11-109.16-24.52-24.45-45.09-45.4-45.71-46.56-0.62-1.15-0.85-2.62-0.51-3.26 0.4-0.75 168.61-1.18 471.02-1.21zm-6.63 62.56c-1.65 0.71-4.59 2.46-6.53 3.89-1.94 1.44-4.5 4.77-5.68 7.41-1.18 2.65-2.16 7.38-2.18 10.52-0.01 3.14 0.92 7.68 2.08 10.09 1.15 2.41 3.59 5.38 5.41 6.61 1.81 1.22 3.84 3.31 4.5 4.63 0.96 1.91 0.08 4.66-4.34 13.51-3.06 6.12-8.14 17.61-11.3 25.54-3.16 7.93-7.83 18.67-10.37 23.88-2.55 5.2-5.17 9.93-5.83 10.52-0.66 0.58-2.01 0.79-3.01 0.47-0.99-0.32-6.93-6.91-13.21-14.64-6.28-7.74-13.19-16.53-15.35-19.55-2.16-3.02-3.92-6.43-3.9-7.59 0.01-1.16 1.09-3.59 2.39-5.41 1.3-1.82 2.68-5.47 3.06-8.11 0.49-3.37 0.05-6.05-1.47-8.99-1.18-2.3-4.05-5.42-6.36-6.94-2.76-1.81-5.96-2.75-9.31-2.73-2.81 0.02-6.87 0.83-9.02 1.8-2.14 0.97-5.1 3.81-6.56 6.31-1.66 2.83-2.68 6.59-2.7 9.95-0.03 3.35 0.87 6.89 2.36 9.31 1.32 2.15 4.3 4.85 6.62 6.01 2.32 1.16 4.49 2.78 4.81 3.61 0.32 0.82-1.82 12.18-4.76 25.23-2.93 13.05-5.9 25.22-6.6 27.03-0.7 1.82-2.22 3.65-3.38 4.06-1.58 0.57-6.91-4.09-21.61-18.92-10.73-10.83-20.1-20.76-20.84-22.08-1.03-1.86-0.9-3.3 0.58-6.31 1.06-2.15 1.91-6.21 1.9-9.01-0.02-3.32-0.97-6.46-2.71-8.95-1.47-2.11-4.17-4.68-5.98-5.71-1.82-1.02-5.2-1.87-7.51-1.87-2.32 0-5.97 0.72-8.11 1.58-2.15 0.87-5.11 3.44-6.58 5.71-1.66 2.57-2.68 6.05-2.7 9.24-0.02 2.8 0.91 7.09 2.07 9.53 1.44 3.04 3.6 5.1 6.91 6.58 2.64 1.19 5.75 2.17 6.9 2.18 1.21 0.02 2.83 1.69 3.8 3.94 0.93 2.14 3.33 9.04 5.32 15.32 2 6.27 6.3 19.25 9.57 28.83 3.26 9.59 8.72 26.62 12.13 37.85 3.4 11.24 6.86 21.66 7.66 23.17 0.81 1.5 2.56 2.72 3.88 2.71 1.32-0.02 5.38-1.07 9.01-2.35 3.64-1.27 13.37-3.67 21.63-5.34 8.26-1.66 20.97-3.83 28.24-4.82 7.27-0.99 21.87-2.45 32.44-3.25 12.06-0.91 29.98-1.19 48.07-0.75 19.37 0.47 34.16 1.49 45.05 3.11 8.93 1.33 22.17 3.58 29.44 5 7.27 1.42 17.82 3.91 23.43 5.53 5.62 1.62 11.3 2.79 12.62 2.59 1.97-0.3 3.45-3.65 8.16-18.39 3.17-9.91 11.28-34.64 18.02-54.96l12.27-36.95c8.38-3.05 11.82-4.81 13.04-5.88 1.23-1.07 2.99-3.43 3.91-5.24 0.92-1.82 1.68-5.74 1.68-8.71 0-4.58-0.69-6.16-4.51-10.29-3.63-3.93-5.56-5.01-9.91-5.54-3.88-0.47-6.71-0.02-10.04 1.58-2.55 1.23-5.73 4.11-7.11 6.44-1.52 2.56-2.43 6.07-2.34 9.01 0.08 2.64 0.99 6.83 2.01 9.31l1.86 4.51c-29.03 30.26-38.75 39.86-40.34 40.85-2.62 1.63-3.09 1.6-5.01-0.37q-2.12-2.18-7.19-26.44c-2.79-13.34-5.09-25.75-5.11-27.56-0.02-2.63 0.9-3.78 4.48-5.6 2.48-1.25 5.45-3.96 6.61-6 1.15-2.05 2.1-6.02 2.09-8.83 0-2.99-0.99-6.72-2.4-9.01-1.32-2.15-4.16-4.99-6.3-6.31-2.39-1.46-6.02-2.39-9.32-2.39-3.06 0-6.97 0.93-9.01 2.15-2.04 1.23-4.84 4.73-6.47 8.11-2.06 4.27-2.64 6.97-2.07 9.55 0.44 1.99 2.14 5.64 3.77 8.11l2.97 4.51c-9.31 13.04-12.96 17.99-14.12 19.41-1.15 1.43-5.75 6.84-10.21 12.02-4.46 5.18-8.79 9.42-9.61 9.41-0.83-0.01-2.11-0.42-2.86-0.91-0.74-0.48-3.78-5.74-6.75-11.69-2.97-5.95-7.59-16.22-10.26-22.83-2.67-6.61-7.06-16.75-9.77-22.53-2.7-5.79-4.92-11.73-4.94-13.22-0.01-1.63 1.42-3.78 3.61-5.41 2-1.48 4.78-5 6.18-7.81 1.93-3.87 2.44-6.72 2.1-11.79-0.31-4.64-1.36-8.01-3.45-11.02-1.65-2.39-4.86-5.6-7.13-7.14-2.88-1.94-6.16-2.88-10.82-3.08-3.67-0.16-8.03 0.29-9.69 1zm8.94 114.39c0.7 0.22 2.9 2.91 4.88 5.98 1.99 3.06 5.91 9.38 8.71 14.04 4.46 7.39 4.93 8.81 3.69 11.17-0.78 1.49-4.83 7.98-9.01 14.42-4.18 6.45-8.13 11.72-8.79 11.72-0.67 0-2.74-2.03-4.61-4.51-1.88-2.48-5.93-8.43-9.01-13.22-3.09-4.79-5.59-9.65-5.57-10.81 0.02-1.16 3.1-6.97 6.84-12.92 3.74-5.95 7.88-12.04 9.19-13.54 1.32-1.5 2.98-2.55 3.68-2.33zm-73.82 24.88c0.66 0 3.4 2.03 6.1 4.51 2.69 2.48 5.18 5.59 5.52 6.91 0.33 1.32-0.79 5.24-2.5 8.71-1.97 4-3.88 6.32-5.22 6.33-1.15 0.01-4.39-2.29-7.19-5.11-3.33-3.35-5.1-6.2-5.12-8.25-0.01-1.72 1.6-5.37 3.6-8.11 1.99-2.74 4.16-4.99 4.81-4.99zm147.06 0c1.08 0 3.53 2.8 5.53 6.31 1.98 3.47 3.59 7.12 3.58 8.11-0.01 0.99-2.84 4.34-6.3 7.44-3.45 3.1-6.82 5.42-7.48 5.15-0.66-0.26-2.42-2.93-3.91-5.93-1.49-3-2.63-6.67-2.54-8.16 0.08-1.49 2.19-5 4.67-7.81 2.48-2.81 5.39-5.11 6.45-5.11zm-201.78 20.68c1.35 0.96 3.41 3.59 4.57 5.85 1.66 3.21 1.86 4.84 0.91 7.42-0.68 1.82-1.77 3.03-2.43 2.7-0.66-0.33-2.27-2.9-3.58-5.7-1.31-2.81-2.27-6.66-2.14-8.56 0.22-3.23 0.39-3.34 2.67-1.71zm259.09-0.25c0.6 0 1.1 0.95 1.09 2.1-0.01 1.16-1.36 4.95-3.01 8.42-1.64 3.46-3.53 6.3-4.19 6.3-0.66 0-1.47-0.81-1.8-1.8-0.33-0.99-0.63-3.38-0.67-5.3-0.06-2.51 0.99-4.37 3.7-6.61 2.08-1.71 4.27-3.11 4.88-3.11zm-179.14 45.07c-11.56 1.54-26.43 3.91-33.04 5.26-6.61 1.35-18.51 4.1-26.44 6.12-7.93 2.01-15.09 4.32-15.92 5.14-1.2 1.2-1.12 2.82 0.42 8.1 1.06 3.64 2.55 7.31 3.31 8.17 0.76 0.85 2.87 1.53 4.68 1.5 1.82-0.03 8.85-1.37 15.62-2.97 6.78-1.61 21.24-4.28 32.15-5.95 10.9-1.66 26.31-3.66 34.24-4.44 9.11-0.9 24.61-1.18 42.06-0.77 17.87 0.43 34 1.54 45.66 3.16 9.91 1.37 25.05 3.88 33.64 5.58 8.59 1.71 18.6 3.84 22.23 4.73 5.13 1.27 7.09 1.32 8.75 0.22 1.21-0.8 2.87-4.55 3.83-8.63 1.31-5.57 1.37-7.53 0.27-8.63-0.79-0.78-7.65-3.06-15.25-5.06-7.6-2.01-18.96-4.71-25.23-6.02-6.28-1.31-15.2-2.93-19.83-3.61-4.63-0.68-15.85-2.06-24.93-3.07-9.94-1.11-26.23-1.8-40.86-1.74-18.14 0.09-29.68 0.82-45.36 2.91zm17.42 50.34c-5.28 0.86-15.29 3.23-22.22 5.27-6.94 2.04-18.03 6.06-24.64 8.93-7.13 3.1-18.12 9.44-27.03 15.6-8.26 5.7-19.08 14.12-24.03 18.71-4.96 4.59-13.7 14.5-19.42 22.03-5.72 7.53-12.31 17.2-14.65 21.5-2.34 4.29-6.75 14.03-9.8 21.63-3.71 9.25-6.68 19.58-9.01 31.24-1.91 9.58-4.01 24.72-4.68 33.64-0.67 8.93-1.52 24.88-1.88 35.45-0.37 10.57-0.96 26.26-1.32 34.85-0.36 8.59-1.17 22.11-1.81 30.04-0.64 7.93-1.98 19.55-2.99 25.83-1.01 6.28-2.82 14.66-4.04 18.63-1.22 3.96-3.72 10.99-5.56 15.62-1.84 4.62-7.04 14.35-11.56 21.62-4.53 7.27-11.6 17.27-15.73 22.23-4.12 4.95-11.06 12.79-15.41 17.42-4.36 4.63-11.55 13.01-15.98 18.63-4.44 5.62-8.37 11.84-8.74 13.82-0.38 1.98-0.37 5.5 0.01 7.81 0.38 2.31 1.79 5.69 3.14 7.51 1.34 1.82 5.01 4.25 8.15 5.41 5.37 1.98 20.76 2.1 259.24 2.1 199.31 0 254.63-0.32 258.65-1.5 2.81-0.83 6.79-2.99 8.85-4.81 3.12-2.75 3.86-4.42 4.36-9.91 0.42-4.53 0.04-7.74-1.2-10.21-0.99-1.99-6.87-9.46-13.06-16.62-6.2-7.15-15.18-17.42-19.96-22.83-4.78-5.4-12.68-15.77-17.55-23.04-4.88-7.27-10.78-17-13.12-21.63-2.33-4.62-5.66-13.27-7.4-19.22-1.73-5.95-3.71-14.33-4.4-18.63-0.68-4.29-1.76-11.86-2.39-16.82-0.63-4.95-1.97-30.37-2.96-56.47-1-26.11-2.35-53.41-3.01-60.68-0.66-7.27-2.34-18.9-3.73-25.84-1.39-6.94-3.74-16.67-5.23-21.63-1.49-4.95-4.79-13.6-7.35-19.22-2.55-5.62-6.55-13.73-8.89-18.03-2.33-4.29-8.63-13.21-13.99-19.82-5.36-6.61-13.73-15.85-18.6-20.53-4.87-4.68-15.62-13.03-23.88-18.55-9.45-6.33-20.13-12.21-28.83-15.9-7.6-3.21-21.12-7.78-30.04-10.14-15.77-4.17-16.93-4.3-41.46-4.67-16.66-0.24-28.5 0.16-34.85 1.18zm-40.62 484.05c-0.33 0.83 0.13 5.02 1.02 9.32 0.89 4.3 2.5 10.24 3.58 13.22 1.08 2.97 3.49 7.57 5.34 10.21 1.86 2.64 6.82 8.07 11.02 12.05 4.21 3.99 10.35 8.97 13.66 11.08 3.3 2.11 9.11 4.93 12.91 6.27 3.8 1.34 11.1 2.91 16.23 3.47 5.12 0.57 12.82 0.62 17.12 0.12 4.29-0.5 11.86-2.58 16.82-4.62 4.96-2.04 12.8-6.59 17.42-10.1 4.65-3.52 11.22-10.12 14.69-14.73 4.19-5.58 7.25-11.33 9.21-17.36 1.62-4.95 3.12-11.44 3.34-14.42l0.4-5.4c-127.3-0.56-142.29-0.31-142.76 0.89z"/>
		<path id="Color Fill 2" fill-rule="evenodd" class="s1" d="m1030.69 456.34c478.17 0.16 503.83 0.28 510.68 2.3 3.97 1.18 11.26 3.74 16.22 5.71 4.96 1.97 13.58 6.67 19.15 10.46 6.65 4.51 13.43 10.61 19.66 17.7 5.24 5.95 11.46 14.33 13.84 18.62 2.37 4.3 6.14 12.95 8.39 19.23 3.52 9.87 4.22 13.77 5.2 28.84 0.67 10.46 0.99 202.74 0.45 945.05l-4.5 13.21c-2.48 7.27-6.6 16.74-9.17 21.03-2.57 4.3-8.39 12.04-12.92 17.21-4.54 5.17-12.04 12.26-16.67 15.76-4.62 3.5-12.19 8.25-16.82 10.56-4.63 2.31-12.2 5.49-25.23 9.94h-1028.56l-9.02-2.83c-4.95-1.56-12.25-4.47-16.22-6.47-3.96-2-10.18-5.65-13.82-8.11-3.63-2.46-11.2-9.35-16.82-15.31-5.62-5.97-12.41-14.57-15.1-19.1-2.69-4.54-6.68-12.58-8.86-17.87-2.18-5.29-4.7-13.13-5.6-17.42-1.37-6.52-1.64-84.99-1.65-475.23-0.01-301.24 0.41-471.16 1.18-477.93 0.66-5.79 2.61-14.44 4.33-19.23 1.73-4.79 5.48-13.31 8.35-18.92 3.29-6.44 8.42-13.77 13.88-19.83 4.77-5.29 12.5-12.51 17.18-16.04 4.69-3.54 12.31-8.22 16.93-10.4 4.63-2.18 11.79-5.1 15.92-6.48 4.13-1.39 11.7-3 16.83-3.58 5.18-0.58 232.37-0.97 512.77-0.87zm-483.62 73.11c0.01 0.83 71.64 73.15 159.18 160.72 87.55 87.57 159.2 159.75 159.22 160.41 0.03 0.66-6.31 8-14.09 16.31-7.78 8.31-17.59 20.21-21.8 26.44l-7.67 11.32c-39.15-39.11-99.32-99.13-158.97-158.61-59.64-59.47-121.34-120.97-137.1-136.64-15.76-15.68-29.33-28.52-30.15-28.54-1.2-0.03-1.52 90.24-1.56 447.26-0.03 246.01 0.37 447.72 0.9 448.24 0.53 0.52 47.01-45.17 103.3-101.54l102.35-102.48c1.06 16.76 1.91 24.6 2.57 28.24 0.66 3.63 2.77 9.85 4.69 13.82 2 4.11 7.29 11.28 12.33 16.7 4.85 5.22 8.83 9.91 8.83 10.44 0 0.52-39.55 40.59-87.89 89.04-48.33 48.45-88.07 88.77-88.31 89.59-0.35 1.21 93.51 1.53 471.47 1.58 259.55 0.03 472.17-0.1 472.49-0.31 0.32-0.2-39.72-40.65-88.99-89.89l-89.57-89.52c11.44-12.1 16.63-18.32 18.91-21.63 2.28-3.3 5.31-9.79 6.72-14.42 1.53-4.99 2.87-13.46 3.28-20.84l0.7-12.44c158.31 157.59 204.68 203.34 205.18 203.33 0.49-0.01 0.91-202.11 0.92-449.11l0.02-449.1c-6.75 6.52-79.92 79.65-166.97 166.72-87.04 87.07-158.76 158.32-159.38 158.34-0.62 0.01-3.8-3.64-7.06-8.12-3.26-4.47-8.89-11.64-12.52-15.94-3.62-4.3-10.61-11.87-15.52-16.82-7.52-7.59-8.82-9.49-8.24-12.02 0.43-1.9 58.65-60.95 158.73-161.01 86.93-86.91 158.05-158.68 158.06-159.5 0-1.18-98.25-1.49-477.03-1.51-381.84-0.01-477.03 0.28-477.03 1.49zm477.02 62.26c4.61 0.01 8 0.81 11.24 2.67 2.69 1.55 5.93 4.94 7.73 8.07 2.18 3.8 3.11 7.2 3.12 11.42 0.02 4.5-0.78 7.29-3.22 11.11-1.79 2.81-4.88 6.06-6.86 7.21-2.75 1.6-3.43 2.68-2.84 4.51 0.42 1.32 4.2 10.11 8.41 19.53 4.21 9.41 7.65 17.39 7.65 17.72 0 0.33 3.65 8.47 8.11 18.09 5.7 12.28 8.83 17.69 10.51 18.18 1.77 0.51 3.47-0.54 6.44-3.97 2.22-2.57 10.18-12.51 31.3-39.51l-2.8-3c-1.54-1.66-3.41-4.23-4.15-5.71-0.74-1.49-1.35-4.06-1.35-5.71 0-1.65 1.08-5.17 2.41-7.81 1.32-2.64 3.62-5.58 5.1-6.52 1.49-0.94 4.33-1.83 6.31-1.98 1.98-0.15 5.09-0.19 6.91-0.09 1.86 0.1 5.19 1.89 7.6 4.08 2.36 2.15 4.78 5.8 5.39 8.11 0.69 2.65 0.65 5.77-0.11 8.42-0.67 2.31-2.69 5.69-4.49 7.51-1.81 1.82-4.77 3.58-6.59 3.91-2.39 0.43-3.17 1.17-2.81 2.69 0.27 1.16 2.76 12.92 5.52 26.14 2.77 13.22 5.93 26.08 7.02 28.57 1.23 2.81 2.79 4.53 4.09 4.51 1.16-0.02 3.91-1.79 6.12-3.94 2.21-2.15 11.81-11.88 38.64-39.32l-2.7-6.02c-1.49-3.32-2.71-7.11-2.71-8.43 0-1.33 0.95-4.36 2.11-6.75 1.15-2.39 3.72-5.35 5.7-6.57 2.15-1.33 5.91-2.25 9.32-2.27 4.78-0.03 6.39 0.59 9.98 3.87 2.35 2.15 4.81 5.53 5.47 7.51q1.19 3.61-0.02 8.41c-0.66 2.65-2.45 6.02-3.96 7.49-1.52 1.48-5.35 3.64-14.28 6.93l-8.87 26.44c-4.88 14.54-12.51 38.06-16.94 52.26-4.44 14.21-8.67 27.07-9.41 28.58-0.87 1.8-2.36 2.71-4.33 2.68-1.65-0.04-7.33-1.39-12.62-3.01-5.28-1.62-13.4-3.74-18.02-4.71-4.63-0.97-15.71-2.89-24.63-4.26-8.93-1.37-24.34-3.09-34.25-3.83-10.31-0.76-29.84-1.04-45.66-0.66-15.2 0.36-34.94 1.54-43.86 2.61-8.92 1.07-24.06 3.51-33.64 5.42-9.58 1.91-21.48 4.79-26.44 6.4-4.95 1.6-9.69 2.72-10.51 2.47-0.83-0.24-4.51-10.04-8.2-21.77-3.68-11.73-11.65-36.47-17.7-54.97-6.06-18.51-11.57-34.02-12.24-34.47-0.67-0.45-3.11-1.12-5.42-1.48-2.31-0.36-5.69-2.01-7.51-3.68-1.82-1.67-3.62-4.52-4-6.34-0.39-1.81-0.89-3.84-1.11-4.5-0.22-0.66 0.11-3.37 0.72-6.01 0.61-2.64 2.33-6.03 3.8-7.52 1.48-1.5 4.99-3.25 7.8-3.91 4.24-0.99 6.02-0.78 10.51 1.22 4.33 1.92 5.89 3.48 7.82 7.81 1.49 3.36 2.13 6.65 1.7 8.71-0.39 1.82-1.55 4.93-2.58 6.91-1.23 2.38-1.5 4.3-0.8 5.65 0.59 1.12 10.27 11.29 21.5 22.58 14.75 14.84 21.09 20.45 22.82 20.19 1.83-0.28 2.88-2.18 4.5-8.17 1.17-4.29 4.29-17.54 6.94-29.44 2.65-11.89 4.81-22.03 4.8-22.53 0-0.49-1.22-0.89-2.71-0.88-1.49 0-4.49-1.48-6.68-3.31-2.42-2.02-4.33-4.96-4.88-7.52-0.49-2.32-0.47-6.37 0.05-9.01 0.54-2.68 2.43-6.28 4.28-8.13 1.83-1.83 5.49-3.83 8.13-4.46 2.95-0.7 6.43-0.71 9.01-0.04 2.32 0.6 5.36 2.34 6.76 3.86 1.41 1.52 3.16 3.97 3.91 5.46 0.74 1.49 1.35 4.33 1.35 6.31 0 1.98-0.61 4.82-1.35 6.31-0.75 1.48-2.5 3.93-6.46 8.15l5.36 7.49c2.94 4.12 9.65 12.9 14.9 19.5 5.25 6.61 10.95 13.47 12.67 15.25 1.95 2.03 3.77 2.93 4.87 2.41 0.96-0.46 4.39-6.51 7.63-13.45 3.23-6.94 7.11-15.86 8.62-19.83 1.5-3.96 6.33-15.05 10.73-24.63 4.39-9.58 7.96-17.69 7.93-18.02-0.02-0.33-1.93-1.82-4.24-3.31-2.3-1.48-5-3.92-6-5.4-0.99-1.49-2.32-4.87-2.94-7.51-0.73-3.1-0.7-6.73 0.09-10.22 0.67-2.97 2.44-7.03 3.94-9.01 1.5-1.98 4.57-4.54 6.83-5.68 2.42-1.22 6.82-2.07 10.72-2.06zm-4.04 116.18c-1.57 2.48-5.91 9.24-9.63 15.02-3.72 5.79-6.78 11.19-6.8 12.02-0.02 0.83 4.31 8.12 9.61 16.22 5.31 8.1 10.19 14.72 10.86 14.72 0.66 0 2.64-2.57 4.41-5.71 1.76-3.14 6.09-9.9 9.61-15.02 3.52-5.12 6.4-9.72 6.4-10.21 0-0.5-1.81-3.61-4.02-6.91-2.2-3.3-6.53-10.2-9.61-15.32-3.07-5.12-6.13-9.31-6.78-9.31-0.65 0-2.48 2.03-4.05 4.5zm-72.63 24.04c-1.28 1.81-3.2 5.06-4.28 7.2-1.08 2.15-1.97 4.86-1.98 6.01-0.01 1.16 2.83 4.94 6.31 8.4 3.48 3.46 7 6.3 7.82 6.31 0.83 0.01 3.4-3.77 5.71-8.4l4.21-8.41c-10.71-11.24-14.19-14.48-14.65-14.46-0.46 0.02-1.87 1.53-3.14 3.35zm143.5 3.54c-5.21 5.35-6.62 7.53-6.02 9.37 0.43 1.32 2.33 5.51 4.23 9.31 1.89 3.8 3.95 6.78 4.56 6.61 0.61-0.16 3.86-2.87 7.21-6 4.42-4.14 6.11-6.62 6.13-9.02 0.02-1.81-1.28-5.73-2.9-8.71-1.61-2.97-3.71-6.11-4.67-6.97-1.47-1.31-2.82-0.46-8.54 5.41zm-200.2 13.28c0 0.49 0.59 3.06 1.3 5.71 0.72 2.64 2.74 7.93 4.5 11.75 1.76 3.83 3.47 6.95 3.8 6.94 0.33-0.01 1.01-1.78 1.52-3.95 0.5-2.16 0.91-5.96 0.9-8.44-0.01-3.82-0.78-5.14-5.12-8.73-2.81-2.33-5.51-4.22-6.01-4.21-0.5 0.01-0.9 0.43-0.89 0.93zm260.18 4.15l-5.76 5.16c1.35 9.31 1.96 12.69 2.22 13.52 0.27 0.82 0.89 1.52 1.39 1.54 0.5 0.03 2.71-4.43 4.93-9.91 2.21-5.48 3.79-11.2 3.5-12.71-0.5-2.64-0.76-2.54-6.28 2.4zm-126.81 41.98c13.64-0.09 30.2 0.59 39.65 1.63 8.92 0.97 20 2.37 24.63 3.11 4.63 0.74 13.82 2.42 20.43 3.74 6.61 1.32 17.15 3.74 23.43 5.38 6.28 1.64 12.36 3.48 13.52 4.09 1.15 0.61 2.1 1.78 2.11 2.61 0.01 0.82-0.8 4.34-1.8 7.81-1 3.47-2.49 6.59-3.32 6.95-0.82 0.35-7.18-0.68-14.12-2.3-6.94-1.61-19.37-4.06-27.63-5.43-8.26-1.37-22.05-3.41-30.64-4.54-11.05-1.45-24.42-2.05-45.66-2.07-21.75-0.02-34.69 0.56-46.87 2.1-9.25 1.17-23.04 3.2-30.64 4.52-7.6 1.31-19.63 3.71-26.73 5.33-10.49 2.39-13.28 2.66-14.82 1.44-1.04-0.82-2.72-4.47-3.73-8.11-1.74-6.24-1.72-6.69 0.39-8.09 1.23-0.81 7.91-2.87 14.85-4.58 6.94-1.71 17.76-4.12 24.04-5.35 6.27-1.23 17.36-3.1 24.63-4.15 7.27-1.05 18.08-2.37 24.03-2.92 5.95-0.56 21.36-1.08 34.25-1.17zm0 51.65c15.39-0.1 25.55 0.43 33.04 1.74 5.95 1.04 17.98 4.28 26.73 7.21 8.76 2.92 19.85 7.28 24.64 9.68 4.79 2.4 14.39 8.18 21.33 12.85 7.75 5.21 17.53 13.38 25.36 21.17 7.01 6.98 16.13 17.28 20.27 22.9 4.13 5.61 9.96 15.08 12.94 21.02 2.99 5.95 7.19 15.42 9.34 21.03 2.16 5.62 5.28 16.7 6.94 24.64 1.67 7.93 3.35 17.12 3.75 20.42 0.41 3.31 1.24 13.31 1.86 22.23 0.62 8.92 1.45 27.85 1.85 42.06 0.4 14.21 1.23 34.21 1.85 44.46 0.62 10.24 1.73 22.68 2.48 27.63 0.75 4.96 2.97 15.5 4.94 23.43 1.97 7.93 5.49 18.21 7.83 22.83 2.34 4.63 7.65 13.55 11.82 19.83 4.16 6.28 11.76 16.28 16.88 22.23 5.12 5.95 14.14 16.22 20.04 22.83 5.9 6.61 12.04 13.91 13.65 16.22 2.23 3.22 2.92 5.76 2.91 10.82 0 4.53-0.7 7.55-2.23 9.61-1.23 1.65-4.36 4.08-6.96 5.4-4.68 2.38-7.23 2.4-255.86 2.44-138.12 0.02-254.64-0.35-258.94-0.82-4.71-0.52-9-1.76-10.81-3.15-1.66-1.25-3.75-3.86-4.65-5.78-0.9-1.93-1.65-5.39-1.66-7.7-0.01-2.32 0.82-5.83 1.85-7.81 1.02-1.99 5.29-7.66 9.47-12.61 4.18-4.94 10.64-12.24 14.35-16.22 3.72-3.97 9.69-10.74 13.27-15.03 3.59-4.3 9.88-12.81 13.98-18.93 4.1-6.11 9.35-14.9 11.66-19.52 2.32-4.63 5.53-12.61 7.15-17.73 1.62-5.12 3.48-11.74 4.13-14.72 0.65-2.97 1.99-11.08 2.99-18.02 0.99-6.94 2.1-19.38 2.46-27.64 0.36-8.26 0.95-24.21 1.31-35.44 0.36-11.24 0.93-26.11 1.27-33.05 0.34-6.94 1.17-18.83 1.84-26.43 0.67-7.6 2.52-20.31 4.09-28.24 1.58-7.93 4.59-19.29 6.68-25.23 2.1-5.95 6.13-15.68 8.97-21.63 2.97-6.23 9.92-17.14 16.38-25.72 6.17-8.2 15.04-18.48 19.71-22.83 4.67-4.36 13.05-11.2 18.63-15.2 5.57-4 13.92-9.52 18.54-12.26 4.63-2.74 13.82-7.12 20.43-9.72 6.61-2.6 16.34-5.93 21.63-7.41 5.29-1.47 13.67-3.35 18.62-4.18 4.96-0.84 19.02-1.58 31.25-1.66zm71.49 484.05l-0.91 5.73c-0.5 3.15-2.1 9.24-3.54 13.53-1.45 4.3-4.83 11.02-7.5 14.94-2.68 3.92-7.85 9.75-11.48 12.95-3.64 3.21-10.67 7.94-15.62 10.53-4.96 2.58-12.8 5.58-17.42 6.66-6.31 1.47-10.97 1.75-18.63 1.12-5.62-0.46-13.46-1.84-17.42-3.06-3.97-1.22-10.65-4.26-14.85-6.76-4.2-2.49-11.64-8.73-16.52-13.85-4.89-5.12-10.03-11.61-11.44-14.42-1.4-2.8-3.57-9.16-4.82-14.11-1.25-4.96-2.26-9.96-2.25-11.12 0.01-1.98 4.21-2.1 142.4-2.14z"/>
	</g>
</svg>